<?xml version="1.0" encoding="UTF-8"?>
<!DOCTYPE svg PUBLIC "-//W3C//DTD SVG 1.1//EN" "http://www.w3.org/Graphics/SVG/1.1/DTD/svg11.dtd">
<svg xmlns="http://www.w3.org/2000/svg" xmlns:xlink="http://www.w3.org/1999/xlink" version="1.1" width="961px" height="451px" viewBox="-0.5 -0.5 961 451" style="background-color: rgb(255, 255, 255);"><defs/><g><rect x="120" y="0" width="760" height="450" rx="13.5" ry="13.5" fill="#fad7ac" stroke="#b46504" pointer-events="all"/><path d="M 275 130 L 295 130" fill="none" stroke="#000000" stroke-width="2" stroke-miterlimit="10" pointer-events="stroke"/><path d="M 291.5 133.5 L 284.5 126.5" fill="none" stroke="#000000" stroke-width="2" stroke-miterlimit="10" pointer-events="all"/><path d="M 235 130 L 180 130" fill="none" stroke="#000000" stroke-width="2" stroke-miterlimit="10" pointer-events="stroke"/><path d="M 230.5 134.5 L 221.5 125.5" fill="none" stroke="#000000" stroke-width="2" stroke-miterlimit="10" pointer-events="all"/><rect x="235" y="110" width="40" height="40" rx="4" ry="4" fill="#ffffff" stroke="#000000" pointer-events="all"/><g fill="#000000" font-family="Helvetica" text-anchor="middle" font-size="12px"><text x="254.5" y="134.5">9</text></g><path d="M 335 130 L 355 130" fill="none" stroke="#000000" stroke-width="2" stroke-miterlimit="10" pointer-events="stroke"/><path d="M 351.5 133.5 L 344.5 126.5" fill="none" stroke="#000000" stroke-width="2" stroke-miterlimit="10" pointer-events="all"/><rect x="295" y="110" width="40" height="40" rx="4" ry="4" fill="#ffffff" stroke="#000000" pointer-events="all"/><g fill="#000000" font-family="Helvetica" text-anchor="middle" font-size="12px"><text x="314.5" y="134.5">8</text></g><rect x="355" y="110" width="40" height="40" rx="4" ry="4" fill="#ffffff" stroke="#000000" pointer-events="all"/><g fill="#000000" font-family="Helvetica" text-anchor="middle" font-size="12px"><text x="374.5" y="134.5">7</text></g><path d="M 275 190 L 295 190" fill="none" stroke="#000000" stroke-width="2" stroke-miterlimit="10" pointer-events="stroke"/><path d="M 291.5 193.5 L 284.5 186.5" fill="none" stroke="#000000" stroke-width="2" stroke-miterlimit="10" pointer-events="all"/><rect x="235" y="170" width="40" height="40" rx="4" ry="4" fill="#ffffff" stroke="#000000" pointer-events="all"/><g fill="#000000" font-family="Helvetica" text-anchor="middle" font-size="12px"><text x="254.5" y="194.5">6</text></g><path d="M 335 190 L 355 190" fill="none" stroke="#000000" stroke-width="2" stroke-miterlimit="10" pointer-events="stroke"/><path d="M 351.5 193.5 L 344.5 186.5" fill="none" stroke="#000000" stroke-width="2" stroke-miterlimit="10" pointer-events="all"/><rect x="295" y="170" width="40" height="40" rx="4" ry="4" fill="#ffffff" stroke="#000000" pointer-events="all"/><g fill="#000000" font-family="Helvetica" text-anchor="middle" font-size="12px"><text x="314.5" y="194.5">5</text></g><rect x="355" y="170" width="40" height="40" rx="4" ry="4" fill="#ffffff" stroke="#000000" pointer-events="all"/><g fill="#000000" font-family="Helvetica" text-anchor="middle" font-size="12px"><text x="374.5" y="194.5">4</text></g><path d="M 275 250 L 295 250" fill="none" stroke="#000000" stroke-width="2" stroke-miterlimit="10" pointer-events="stroke"/><path d="M 291.5 253.5 L 284.5 246.5" fill="none" stroke="#000000" stroke-width="2" stroke-miterlimit="10" pointer-events="all"/><rect x="235" y="230" width="40" height="40" rx="4" ry="4" fill="#ffffff" stroke="#000000" pointer-events="all"/><g fill="#000000" font-family="Helvetica" text-anchor="middle" font-size="12px"><text x="254.5" y="254.5">3</text></g><path d="M 335 250 L 355 250" fill="none" stroke="#000000" stroke-width="2" stroke-miterlimit="10" pointer-events="stroke"/><path d="M 351.5 253.5 L 344.5 246.5" fill="none" stroke="#000000" stroke-width="2" stroke-miterlimit="10" pointer-events="all"/><rect x="295" y="230" width="40" height="40" rx="4" ry="4" fill="#ffffff" stroke="#000000" pointer-events="all"/><g fill="#000000" font-family="Helvetica" text-anchor="middle" font-size="12px"><text x="314.5" y="254.5">2</text></g><rect x="355" y="230" width="40" height="40" rx="4" ry="4" fill="#ffffff" stroke="#000000" pointer-events="all"/><g fill="#000000" font-family="Helvetica" text-anchor="middle" font-size="12px"><text x="374.5" y="254.5">1</text></g><path d="M 780 130 L 810 130 L 810 160 L 210 160 L 210 190 L 235 190" fill="none" stroke="#000000" stroke-width="2" stroke-miterlimit="10" pointer-events="stroke"/><path d="M 231.5 193.5 L 224.5 186.5" fill="none" stroke="#000000" stroke-width="2" stroke-miterlimit="10" pointer-events="all"/><path d="M 780 130 L 810 130 L 810 160 L 410 160 L 410 180 L 440 180" fill="none" stroke="#000000" stroke-width="2" stroke-miterlimit="10" pointer-events="stroke"/><path d="M 436.5 183.5 L 429.5 176.5" fill="none" stroke="#000000" stroke-width="2" stroke-miterlimit="10" pointer-events="all"/><path d="M 440 120 L 410 120 L 410 80 L 210 80 L 210 130 L 180 130" fill="none" stroke="#000000" stroke-width="2" stroke-miterlimit="10" pointer-events="stroke"/><path d="M 435.5 124.5 L 426.5 115.5" fill="none" stroke="#000000" stroke-width="2" stroke-miterlimit="10" pointer-events="all"/><rect x="440" y="110" width="340" height="40" rx="2.8" ry="2.8" fill="#b0e3e6" stroke="#0e8088" pointer-events="all"/><g fill="#000000" font-family="Helvetica" text-anchor="middle" font-size="12px"><text x="609.5" y="134.5">Line 1</text></g><path d="M 780 190 L 810 190 L 810 220 L 210 220 L 210 250 L 235 250" fill="none" stroke="#000000" stroke-width="2" stroke-miterlimit="10" pointer-events="stroke"/><path d="M 231.5 253.5 L 224.5 246.5" fill="none" stroke="#000000" stroke-width="2" stroke-miterlimit="10" pointer-events="all"/><rect x="440" y="170" width="340" height="40" rx="2.8" ry="2.8" fill="#b0e3e6" stroke="#0e8088" pointer-events="all"/><g fill="#000000" font-family="Helvetica" text-anchor="middle" font-size="12px"><text x="609.5" y="194.5">Line 2</text></g><path d="M 780 315 L 830 315 L 830 270 L 904.38 270" fill="none" stroke="#000000" stroke-miterlimit="10" pointer-events="stroke"/><path d="M 908.88 270 L 902.88 273 L 904.38 270 L 902.88 267 Z" fill="#000000" stroke="#000000" stroke-miterlimit="10" pointer-events="all"/><path d="M 780 315 L 904.38 315.3" fill="none" stroke="#000000" stroke-miterlimit="10" pointer-events="stroke"/><path d="M 908.88 315.33 L 902.87 318.3 L 904.38 315.3 L 902.9 312.3 Z" fill="#000000" stroke="#000000" stroke-miterlimit="10" pointer-events="all"/><path d="M 780 315 L 830 315 L 830 290 L 904.38 290" fill="none" stroke="#000000" stroke-miterlimit="10" pointer-events="stroke"/><path d="M 908.88 290 L 902.88 293 L 904.38 290 L 902.88 287 Z" fill="#000000" stroke="#000000" stroke-miterlimit="10" pointer-events="all"/><rect x="440" y="295" width="340" height="40" rx="2.8" ry="2.8" fill="#b0e3e6" stroke="#0e8088" pointer-events="all"/><g fill="#000000" font-family="Helvetica" text-anchor="middle" font-size="12px"><text x="609.5" y="319.5">video control line</text></g><path d="M 70 356 L 150 356 L 150 337.5 L 215.13 337.5" fill="none" stroke="#000000" stroke-miterlimit="10" pointer-events="stroke"/><path d="M 218.88 337.5 L 213.88 340 L 215.13 337.5 L 213.88 335 Z" fill="#000000" stroke="#000000" stroke-miterlimit="10" pointer-events="all"/><path d="M 70 377 L 150 377 L 150 337.5 L 215.13 337.5" fill="none" stroke="#000000" stroke-miterlimit="10" pointer-events="stroke"/><path d="M 218.88 337.5 L 213.88 340 L 215.13 337.5 L 213.88 335 Z" fill="#000000" stroke="#000000" stroke-miterlimit="10" pointer-events="all"/><path d="M 70 397 L 150 397 L 150 337.5 L 214.38 337.5" fill="none" stroke="#000000" stroke-miterlimit="10" pointer-events="stroke"/><path d="M 218.88 337.5 L 212.88 340.5 L 214.38 337.5 L 212.88 334.5 Z" fill="#000000" stroke="#000000" stroke-miterlimit="10" pointer-events="all"/><path d="M 70 123 L 115 123 L 160 122.5" fill="none" stroke="#000000" stroke-width="2" stroke-miterlimit="10" pointer-events="stroke"/><path d="M 155.55 127.05 L 146.45 118.15" fill="none" stroke="#000000" stroke-width="2" stroke-miterlimit="10" pointer-events="all"/><rect x="0" y="108" width="70" height="30" fill="none" stroke="none" pointer-events="all"/><g fill="#000000" font-family="Helvetica" text-anchor="middle" font-size="12px"><text x="34.5" y="127.5">pixel_in [7:0]</text></g><rect x="30" y="386" width="40" height="20" fill="none" stroke="none" pointer-events="all"/><g fill="#000000" font-family="Helvetica" text-anchor="middle" font-size="12px"><text x="49.5" y="400.5">hsync</text></g><rect x="30" y="366" width="40" height="20" fill="none" stroke="none" pointer-events="all"/><g fill="#000000" font-family="Helvetica" text-anchor="middle" font-size="12px"><text x="49.5" y="380.5">vsync</text></g><path d="M 70 356 L 140 356 L 140 137.5 L 160 137.5" fill="none" stroke="#000000" stroke-miterlimit="10" pointer-events="stroke"/><rect x="30" y="346" width="40" height="20" fill="none" stroke="none" pointer-events="all"/><g fill="#000000" font-family="Helvetica" text-anchor="middle" font-size="12px"><text x="49.5" y="360.5">de</text></g><rect x="440" y="197" width="20" height="10" fill="none" stroke="none" pointer-events="all"/><g fill="#000000" font-family="Helvetica" text-anchor="middle" font-size="12px"><text x="449.5" y="206.5">rst</text></g><rect x="440" y="138" width="20" height="10" fill="none" stroke="none" pointer-events="all"/><g fill="#000000" font-family="Helvetica" text-anchor="middle" font-size="12px"><text x="449.5" y="147.5">rst</text></g><rect x="440" y="320" width="20" height="10" fill="none" stroke="none" pointer-events="all"/><g fill="#000000" font-family="Helvetica" text-anchor="middle" font-size="12px"><text x="449.5" y="329.5">rst</text></g><path d="M 330 337.5 L 375 337.5 L 375 305 L 440 305" fill="none" stroke="#000000" stroke-width="2" stroke-miterlimit="10" pointer-events="stroke"/><path d="M 436 309 L 428 301" fill="none" stroke="#000000" stroke-width="2" stroke-miterlimit="10" pointer-events="all"/><rect x="220" y="295" width="110" height="85" rx="9.35" ry="9.35" fill="#f5f5f5" stroke="#666666" pointer-events="all"/><path d="M 330 353 L 420 353 L 420 325 L 434.38 325" fill="none" stroke="#000000" stroke-miterlimit="10" pointer-events="stroke"/><path d="M 438.88 325 L 432.88 328 L 434.38 325 L 432.88 322 Z" fill="#000000" stroke="#000000" stroke-miterlimit="10" pointer-events="all"/><path d="M 330 353 L 420 353 L 420 308 C 423.9 308 423.9 302 420 302 L 420 302 L 420 223 C 423.9 223 423.9 217 420 217 L 420 217 L 420 202 L 434.38 202" fill="none" stroke="#000000" stroke-miterlimit="10" pointer-events="stroke"/><path d="M 438.88 202 L 432.88 205 L 434.38 202 L 432.88 199 Z" fill="#000000" stroke="#000000" stroke-miterlimit="10" pointer-events="all"/><path d="M 330 353 L 420 353 L 420 308 C 423.9 308 423.9 302 420 302 L 420 302 L 420 223 C 423.9 223 423.9 217 420 217 L 420 217 L 420 183 C 423.9 183 423.9 177 420 177 L 420 177 L 420 163 C 423.9 163 423.9 157 420 157 L 420 157 L 420 143 L 434.38 143" fill="none" stroke="#000000" stroke-miterlimit="10" pointer-events="stroke"/><path d="M 438.88 143 L 432.88 146 L 434.38 143 L 432.88 140 Z" fill="#000000" stroke="#000000" stroke-miterlimit="10" pointer-events="all"/><rect x="280" y="346" width="50" height="14" fill="none" stroke="none" pointer-events="all"/><g fill="#000000" font-family="Helvetica" text-anchor="end" font-size="9px"><text x="327.5" y="356">hsync_rise</text></g><rect x="245" y="295" width="60" height="25" fill="none" stroke="none" pointer-events="all"/><g fill="#000000" font-family="Helvetica" text-anchor="middle" font-size="10px"><text x="274.5" y="311">video control delay</text></g><rect x="910" y="260" width="50" height="20" fill="none" stroke="none" pointer-events="all"/><g fill="#000000" font-family="Helvetica" font-size="10px"><text x="911.5" y="273.5">hsync_out</text></g><rect x="910" y="280" width="50" height="20" fill="none" stroke="none" pointer-events="all"/><g fill="#000000" font-family="Helvetica" text-anchor="middle" font-size="10px"><text x="934.5" y="293.5">vsync_out</text></g><rect x="910" y="305" width="40" height="20" fill="none" stroke="none" pointer-events="all"/><g fill="#000000" font-family="Helvetica" text-anchor="middle" font-size="10px"><text x="929.5" y="318.5">de_out</text></g><rect x="415" y="0" width="160" height="30" fill="none" stroke="none" pointer-events="all"/><g fill="#000000" font-family="Helvetica" font-weight="bold" text-anchor="middle" font-size="14px"><text x="494.5" y="20.5">Line buffer</text></g><rect x="220" y="331.25" width="40" height="12.5" fill="none" stroke="none" pointer-events="all"/><g fill="#000000" font-family="Helvetica" font-size="9px"><text x="221.5" y="340.5">video_ctrl</text></g><rect x="280" y="331.25" width="50" height="12.5" fill="none" stroke="none" pointer-events="all"/><g fill="#000000" font-family="Helvetica" text-anchor="end" font-size="9px"><text x="327.5" y="340.5">video_ctrl_dl</text></g><path d="M 160 115 Q 180 115 180 130 Q 180 145 160 145 Z" fill="#ffffff" stroke="#000000" stroke-miterlimit="10" pointer-events="all"/></g></svg>