<?xml version="1.0" encoding="UTF-8"?>
<!DOCTYPE svg PUBLIC "-//W3C//DTD SVG 1.1//EN" "http://www.w3.org/Graphics/SVG/1.1/DTD/svg11.dtd">
<svg xmlns="http://www.w3.org/2000/svg" xmlns:xlink="http://www.w3.org/1999/xlink" version="1.1" width="791px" height="311px" viewBox="-0.5 -0.5 791 311" style="background-color: rgb(255, 255, 255);"><defs/><g><rect x="80" y="0" width="610" height="310" rx="12.4" ry="12.4" fill="#d5e8d4" stroke="#82b366" pointer-events="all"/><rect x="460" y="40" width="170" height="210" rx="15.3" ry="15.3" fill="#e1d5e7" stroke="#9673a6" pointer-events="all"/><rect x="460" y="105" width="50" height="20" fill="none" stroke="none" pointer-events="all"/><g fill="#000000" font-family="Helvetica" text-anchor="middle" font-size="12px"><text x="484.5" y="119.5">rd_addr</text></g><rect x="460" y="135" width="50" height="20" fill="none" stroke="none" pointer-events="all"/><g fill="#000000" font-family="Helvetica" text-anchor="middle" font-size="12px"><text x="484.5" y="149.5">wr_addr</text></g><rect x="460" y="70" width="50" height="20" fill="none" stroke="none" pointer-events="all"/><g fill="#000000" font-family="Helvetica" text-anchor="middle" font-size="12px"><text x="484.5" y="84.5">wr_data</text></g><path d="M 630 145 L 730 145" fill="none" stroke="#000000" stroke-width="2" stroke-miterlimit="10" pointer-events="stroke"/><path d="M 725.5 149.5 L 716.5 140.5" fill="none" stroke="#000000" stroke-width="2" stroke-miterlimit="10" pointer-events="all"/><rect x="580" y="135" width="50" height="20" fill="none" stroke="none" pointer-events="all"/><g fill="#000000" font-family="Helvetica" text-anchor="middle" font-size="12px"><text x="604.5" y="149.5">rd_data</text></g><rect x="507.5" y="40" width="75" height="30" fill="none" stroke="none" pointer-events="all"/><g fill="#000000" font-family="Helvetica" text-anchor="middle" font-size="12px"><text x="544.5" y="59.5">Dual Port RAM</text></g><rect x="110" y="120" width="200" height="57.5" rx="7.48" ry="7.48" fill="#fff2cc" stroke="#d6b656" pointer-events="all"/><g fill="#000000" font-family="Helvetica" text-anchor="middle" font-size="12px"><text x="209.5" y="153.25">Counter</text></g><rect x="110" y="155" width="30" height="15" fill="none" stroke="none" pointer-events="all"/><g fill="#000000" font-family="Helvetica" text-anchor="middle" font-size="12px"><text x="124.5" y="167">clk</text></g><rect x="460" y="182" width="30" height="15" fill="none" stroke="none" pointer-events="all"/><g fill="#000000" font-family="Helvetica" text-anchor="middle" font-size="12px"><text x="474.5" y="194">clk</text></g><rect x="110" y="132.5" width="30" height="15" fill="none" stroke="none" pointer-events="all"/><g fill="#000000" font-family="Helvetica" text-anchor="middle" font-size="12px"><text x="124.5" y="144.5">rst</text></g><rect x="350" y="132.5" width="50" height="45" rx="3.15" ry="3.15" fill="#ffffff" stroke="#000000" pointer-events="all"/><g fill="#000000" font-family="Helvetica" text-anchor="middle" font-size="12px"><text x="374.5" y="159.5">reg</text></g><rect x="350" y="133.75" width="20" height="10" fill="none" stroke="none" pointer-events="all"/><g fill="#000000" font-family="Helvetica" text-anchor="middle" font-size="10px"><text x="359.5" y="142.25">D</text></g><rect x="350" y="162.5" width="20" height="10" fill="none" stroke="none" pointer-events="all"/><g fill="#000000" font-family="Helvetica" text-anchor="middle" font-size="11px"><text x="359.5" y="171.5">clk</text></g><path d="M 400 140 L 430 140 L 430 145 L 460 145" fill="none" stroke="#000000" stroke-width="2" stroke-miterlimit="10" pointer-events="stroke"/><path d="M 455.5 149.5 L 446.5 140.5" fill="none" stroke="#000000" stroke-width="2" stroke-miterlimit="10" pointer-events="all"/><g fill="#000000" font-family="Helvetica" text-anchor="middle" font-size="12px"><rect fill="#D5E8D4" stroke="none" x="405" y="135" width="36" height="15" stroke-width="0"/><text x="422" y="146">wr_ptr</text></g><rect x="380" y="130" width="20" height="20" fill="none" stroke="none" pointer-events="all"/><g fill="#000000" font-family="Helvetica" text-anchor="middle" font-size="11px"><text x="389.5" y="144">Q</text></g><path d="M 310 138.75 L 350 138.75" fill="none" stroke="#000000" stroke-width="2" stroke-miterlimit="10" pointer-events="stroke"/><path d="M 345.5 143.25 L 336.5 134.25" fill="none" stroke="#000000" stroke-width="2" stroke-miterlimit="10" pointer-events="all"/><path d="M 310 138.75 L 320 138.8 L 320 115 L 460 115" fill="none" stroke="#000000" stroke-width="2" stroke-miterlimit="10" pointer-events="stroke"/><path d="M 455.5 119.5 L 446.5 110.5" fill="none" stroke="#000000" stroke-width="2" stroke-miterlimit="10" pointer-events="all"/><g fill="#000000" font-family="Helvetica" text-anchor="middle" font-size="12px"><rect fill="#D5E8D4" stroke="none" x="358" y="107" width="33" height="15" stroke-width="0"/><text x="373.2" y="118">rd_ptr</text></g><rect x="280" y="130" width="30" height="17.5" fill="none" stroke="none" pointer-events="all"/><g fill="#000000" font-family="Helvetica" text-anchor="middle" font-size="11px"><text x="294.5" y="142.75">Value</text></g><path d="M 50 140 L 103.63 140" fill="none" stroke="#000000" stroke-miterlimit="10" pointer-events="stroke"/><path d="M 108.88 140 L 101.88 143.5 L 103.63 140 L 101.88 136.5 Z" fill="#000000" stroke="#000000" stroke-miterlimit="10" pointer-events="all"/><rect x="20" y="130" width="30" height="20" fill="none" stroke="none" pointer-events="all"/><g fill="#000000" font-family="Helvetica" text-anchor="middle" font-size="12px"><text x="34.5" y="144.5">rst</text></g><path d="M 50 220 L 240 220 L 240 189.5 L 453.63 189.5" fill="none" stroke="#000000" stroke-miterlimit="10" pointer-events="stroke"/><path d="M 458.88 189.5 L 451.88 193 L 453.63 189.5 L 451.88 186 Z" fill="#000000" stroke="#000000" stroke-miterlimit="10" pointer-events="all"/><path d="M 50 220 L 90 220 L 90 162.5 L 103.63 162.5" fill="none" stroke="#000000" stroke-miterlimit="10" pointer-events="stroke"/><path d="M 108.88 162.5 L 101.88 166 L 103.63 162.5 L 101.88 159 Z" fill="#000000" stroke="#000000" stroke-miterlimit="10" pointer-events="all"/><path d="M 50 220 L 240 220 L 240 190 L 330 190 L 330 167.5 L 343.63 167.5" fill="none" stroke="#000000" stroke-miterlimit="10" pointer-events="stroke"/><path d="M 348.88 167.5 L 341.88 171 L 343.63 167.5 L 341.88 164 Z" fill="#000000" stroke="#000000" stroke-miterlimit="10" pointer-events="all"/><rect x="10" y="210" width="40" height="20" fill="none" stroke="none" pointer-events="all"/><g fill="#000000" font-family="Helvetica" text-anchor="middle" font-size="12px"><text x="29.5" y="224.5">clk</text></g><path d="M 50 80 L 460 80" fill="none" stroke="#000000" stroke-width="2" stroke-miterlimit="10" pointer-events="stroke"/><path d="M 455.5 84.5 L 446.5 75.5" fill="none" stroke="#000000" stroke-width="2" stroke-miterlimit="10" pointer-events="all"/><rect x="0" y="70" width="50" height="20" fill="none" stroke="none" pointer-events="all"/><g fill="#000000" font-family="Helvetica" text-anchor="middle" font-size="12px"><text x="24.5" y="84.5">data_in</text></g><rect x="730" y="135" width="60" height="20" fill="none" stroke="none" pointer-events="all"/><g fill="#000000" font-family="Helvetica" text-anchor="middle" font-size="12px"><text x="759.5" y="149.5">data_out</text></g><rect x="340" y="0" width="90" height="30" fill="none" stroke="none" pointer-events="all"/><g fill="#000000" font-family="Helvetica" font-weight="bold" text-anchor="middle" font-size="14px"><text x="384.5" y="20.5">Line delay</text></g></g></svg>