<?xml version="1.0" encoding="UTF-8"?>
<!DOCTYPE svg PUBLIC "-//W3C//DTD SVG 1.1//EN" "http://www.w3.org/Graphics/SVG/1.1/DTD/svg11.dtd">
<svg xmlns="http://www.w3.org/2000/svg" xmlns:xlink="http://www.w3.org/1999/xlink" version="1.1" width="1141px" height="696px" viewBox="-0.5 -0.5 1141 696" style="background-color: rgb(255, 255, 255);"><defs/><g><rect x="100" y="0.5" width="910" height="695" rx="27.8" ry="27.8" fill="#bac8d3" stroke="#23445d" pointer-events="all"/><rect x="210" y="63" width="240" height="150" rx="9" ry="9" fill="#f8cecc" stroke="#b85450" pointer-events="all"/><g fill="#000000" font-family="Helvetica" text-anchor="middle" font-size="12px"><text x="329.5" y="142.5">Line buffer</text></g><rect x="520" y="63" width="190" height="150" rx="9" ry="9" fill="#f8cecc" stroke="#b85450" pointer-events="all"/><g fill="#000000" font-family="Helvetica" text-anchor="middle" font-size="12px"><text x="614.5" y="142.5">Edge detector</text></g><rect x="210" y="83" width="80" height="20" fill="none" stroke="none" pointer-events="all"/><g fill="#000000" font-family="Helvetica" font-size="12px"><text x="211.5" y="97.5">pixel_in[7:0]</text></g><rect x="210" y="143" width="50" height="20" fill="none" stroke="none" pointer-events="all"/><g fill="#000000" font-family="Helvetica" font-size="12px"><text x="211.5" y="157.5">hsync</text></g><rect x="210" y="163" width="50" height="20" fill="none" stroke="none" pointer-events="all"/><g fill="#000000" font-family="Helvetica" font-size="12px"><text x="211.5" y="177.5">vsync</text></g><rect x="210" y="183" width="50" height="20" fill="none" stroke="none" pointer-events="all"/><g fill="#000000" font-family="Helvetica" font-size="12px"><text x="211.5" y="197.5">de</text></g><path d="M 450 93 L 520 93" fill="none" stroke="#000000" stroke-width="2" stroke-miterlimit="10" pointer-events="stroke"/><path d="M 515.5 97.5 L 506.5 88.5" fill="none" stroke="#000000" stroke-width="2" stroke-miterlimit="10" pointer-events="all"/><rect x="340" y="78" width="110" height="30" fill="none" stroke="none" pointer-events="all"/><g fill="#000000" font-family="Helvetica" text-anchor="end" font-size="12px"><text x="447.5" y="97.5">pixel_out [7:0] [9:1] </text></g><rect x="520" y="83" width="100" height="20" fill="none" stroke="none" pointer-events="all"/><g fill="#000000" font-family="Helvetica" text-anchor="middle" font-size="12px"><text x="569.5" y="97.5">pixel_in [7:0] [9:1]</text></g><path d="M 450 153 L 513.63 153" fill="none" stroke="#000000" stroke-miterlimit="10" pointer-events="stroke"/><path d="M 518.88 153 L 511.88 156.5 L 513.63 153 L 511.88 149.5 Z" fill="#000000" stroke="#000000" stroke-miterlimit="10" pointer-events="all"/><rect x="400" y="143" width="50" height="20" fill="none" stroke="none" pointer-events="all"/><g fill="#000000" font-family="Helvetica" text-anchor="end" font-size="12px"><text x="447.5" y="157.5">hsync_dl</text></g><path d="M 450 173 L 513.63 173" fill="none" stroke="#000000" stroke-miterlimit="10" pointer-events="stroke"/><path d="M 518.88 173 L 511.88 176.5 L 513.63 173 L 511.88 169.5 Z" fill="#000000" stroke="#000000" stroke-miterlimit="10" pointer-events="all"/><rect x="400" y="163" width="50" height="20" fill="none" stroke="none" pointer-events="all"/><g fill="#000000" font-family="Helvetica" text-anchor="end" font-size="12px"><text x="447.5" y="177.5">vsync_dl</text></g><path d="M 450 193 L 513.63 193" fill="none" stroke="#000000" stroke-miterlimit="10" pointer-events="stroke"/><path d="M 518.88 193 L 511.88 196.5 L 513.63 193 L 511.88 189.5 Z" fill="#000000" stroke="#000000" stroke-miterlimit="10" pointer-events="all"/><rect x="400" y="183" width="50" height="20" fill="none" stroke="none" pointer-events="all"/><g fill="#000000" font-family="Helvetica" text-anchor="end" font-size="12px"><text x="447.5" y="197.5">de_dl</text></g><rect x="520" y="143" width="50" height="20" fill="none" stroke="none" pointer-events="all"/><g fill="#000000" font-family="Helvetica" font-size="12px"><text x="521.5" y="157.5">hsync</text></g><rect x="520" y="163" width="50" height="20" fill="none" stroke="none" pointer-events="all"/><g fill="#000000" font-family="Helvetica" font-size="12px"><text x="521.5" y="177.5">vsync</text></g><rect x="520" y="183" width="50" height="20" fill="none" stroke="none" pointer-events="all"/><g fill="#000000" font-family="Helvetica" font-size="12px"><text x="521.5" y="197.5">de</text></g><path d="M 710 153 L 1043.63 153" fill="none" stroke="#000000" stroke-miterlimit="10" pointer-events="stroke"/><path d="M 1048.88 153 L 1041.88 156.5 L 1043.63 153 L 1041.88 149.5 Z" fill="#000000" stroke="#000000" stroke-miterlimit="10" pointer-events="all"/><rect x="650" y="143" width="60" height="20" fill="none" stroke="none" pointer-events="all"/><g fill="#000000" font-family="Helvetica" text-anchor="end" font-size="12px"><text x="707.5" y="157.5">hsync_out</text></g><path d="M 710 173 L 1043.63 173" fill="none" stroke="#000000" stroke-miterlimit="10" pointer-events="stroke"/><path d="M 1048.88 173 L 1041.88 176.5 L 1043.63 173 L 1041.88 169.5 Z" fill="#000000" stroke="#000000" stroke-miterlimit="10" pointer-events="all"/><rect x="650" y="163" width="60" height="20" fill="none" stroke="none" pointer-events="all"/><g fill="#000000" font-family="Helvetica" text-anchor="end" font-size="12px"><text x="707.5" y="177.5">vsync_out</text></g><path d="M 710 193 L 1043.63 193" fill="none" stroke="#000000" stroke-miterlimit="10" pointer-events="stroke"/><path d="M 1048.88 193 L 1041.88 196.5 L 1043.63 193 L 1041.88 189.5 Z" fill="#000000" stroke="#000000" stroke-miterlimit="10" pointer-events="all"/><rect x="650" y="183" width="60" height="20" fill="none" stroke="none" pointer-events="all"/><g fill="#000000" font-family="Helvetica" text-anchor="end" font-size="12px"><text x="707.5" y="197.5">de_out</text></g><path d="M 710 88 L 770 88 L 770 150 C 773.9 150 773.9 156 770 156 L 770 156 L 770 170 C 773.9 170 773.9 176 770 176 L 770 176 L 770 190 C 773.9 190 773.9 196 770 196 L 770 196 L 770 324.3 L 824.13 324.26" fill="none" stroke="#000000" stroke-miterlimit="10" pointer-events="stroke"/><path d="M 829.38 324.25 L 822.38 327.76 L 824.13 324.26 L 822.38 320.76 Z" fill="#000000" stroke="#000000" stroke-miterlimit="10" pointer-events="all"/><rect x="650" y="83" width="60" height="20" fill="none" stroke="none" pointer-events="all"/><g fill="#000000" font-family="Helvetica" text-anchor="end" font-size="12px"><text x="707.5" y="97.5">edge_out</text></g><rect x="210" y="273" width="240" height="150" rx="9" ry="9" fill="#d5e8d4" stroke="#82b366" pointer-events="all"/><g fill="#000000" font-family="Helvetica" text-anchor="middle" font-size="12px"><text x="329.5" y="352.5">Line buffer</text></g><rect x="520" y="273" width="190" height="150" rx="9" ry="9" fill="#d5e8d4" stroke="#82b366" pointer-events="all"/><g fill="#000000" font-family="Helvetica" text-anchor="middle" font-size="12px"><text x="614.5" y="352.5">Edge detector</text></g><rect x="210" y="293" width="80" height="20" fill="none" stroke="none" pointer-events="all"/><g fill="#000000" font-family="Helvetica" font-size="12px"><text x="211.5" y="307.5">pixel_in[7:0]</text></g><rect x="210" y="353" width="50" height="20" fill="none" stroke="none" pointer-events="all"/><g fill="#000000" font-family="Helvetica" font-size="12px"><text x="211.5" y="367.5">hsync</text></g><rect x="210" y="373" width="50" height="20" fill="none" stroke="none" pointer-events="all"/><g fill="#000000" font-family="Helvetica" font-size="12px"><text x="211.5" y="387.5">vsync</text></g><rect x="210" y="393" width="50" height="20" fill="none" stroke="none" pointer-events="all"/><g fill="#000000" font-family="Helvetica" font-size="12px"><text x="211.5" y="407.5">de</text></g><path d="M 450 303 L 520 303" fill="none" stroke="#000000" stroke-width="2" stroke-miterlimit="10" pointer-events="stroke"/><path d="M 515.5 307.5 L 506.5 298.5" fill="none" stroke="#000000" stroke-width="2" stroke-miterlimit="10" pointer-events="all"/><rect x="340" y="288" width="110" height="30" fill="none" stroke="none" pointer-events="all"/><g fill="#000000" font-family="Helvetica" text-anchor="end" font-size="12px"><text x="447.5" y="307.5">pixel_out [7:0] [9:1] </text></g><rect x="520" y="293" width="100" height="20" fill="none" stroke="none" pointer-events="all"/><g fill="#000000" font-family="Helvetica" text-anchor="middle" font-size="12px"><text x="569.5" y="307.5">pixel_in [7:0] [9:1]</text></g><path d="M 450 363 L 513.63 363" fill="none" stroke="#000000" stroke-miterlimit="10" pointer-events="stroke"/><path d="M 518.88 363 L 511.88 366.5 L 513.63 363 L 511.88 359.5 Z" fill="#000000" stroke="#000000" stroke-miterlimit="10" pointer-events="all"/><rect x="400" y="353" width="50" height="20" fill="none" stroke="none" pointer-events="all"/><g fill="#000000" font-family="Helvetica" text-anchor="end" font-size="12px"><text x="447.5" y="367.5">hsync_dl</text></g><path d="M 450 383 L 513.63 383" fill="none" stroke="#000000" stroke-miterlimit="10" pointer-events="stroke"/><path d="M 518.88 383 L 511.88 386.5 L 513.63 383 L 511.88 379.5 Z" fill="#000000" stroke="#000000" stroke-miterlimit="10" pointer-events="all"/><rect x="400" y="373" width="50" height="20" fill="none" stroke="none" pointer-events="all"/><g fill="#000000" font-family="Helvetica" text-anchor="end" font-size="12px"><text x="447.5" y="387.5">vsync_dl</text></g><path d="M 450 403 L 513.63 403" fill="none" stroke="#000000" stroke-miterlimit="10" pointer-events="stroke"/><path d="M 518.88 403 L 511.88 406.5 L 513.63 403 L 511.88 399.5 Z" fill="#000000" stroke="#000000" stroke-miterlimit="10" pointer-events="all"/><rect x="400" y="393" width="50" height="20" fill="none" stroke="none" pointer-events="all"/><g fill="#000000" font-family="Helvetica" text-anchor="end" font-size="12px"><text x="447.5" y="407.5">de_dl</text></g><rect x="520" y="353" width="50" height="20" fill="none" stroke="none" pointer-events="all"/><g fill="#000000" font-family="Helvetica" font-size="12px"><text x="521.5" y="367.5">hsync</text></g><rect x="520" y="373" width="50" height="20" fill="none" stroke="none" pointer-events="all"/><g fill="#000000" font-family="Helvetica" font-size="12px"><text x="521.5" y="387.5">vsync</text></g><rect x="520" y="393" width="50" height="20" fill="none" stroke="none" pointer-events="all"/><g fill="#000000" font-family="Helvetica" font-size="12px"><text x="521.5" y="407.5">de</text></g><rect x="650" y="353" width="60" height="20" fill="none" stroke="none" pointer-events="all"/><g fill="#000000" font-family="Helvetica" text-anchor="end" font-size="12px"><text x="707.5" y="367.5">hsync_out</text></g><rect x="650" y="373" width="60" height="20" fill="none" stroke="none" pointer-events="all"/><g fill="#000000" font-family="Helvetica" text-anchor="end" font-size="12px"><text x="707.5" y="387.5">vsync_out</text></g><rect x="650" y="393" width="60" height="20" fill="none" stroke="none" pointer-events="all"/><g fill="#000000" font-family="Helvetica" text-anchor="end" font-size="12px"><text x="707.5" y="407.5">de_out</text></g><path d="M 710 303 L 750 303 L 750 348 L 828.63 348" fill="none" stroke="#000000" stroke-miterlimit="10" pointer-events="stroke"/><path d="M 833.88 348 L 826.88 351.5 L 828.63 348 L 826.88 344.5 Z" fill="#000000" stroke="#000000" stroke-miterlimit="10" pointer-events="all"/><rect x="650" y="293" width="60" height="20" fill="none" stroke="none" pointer-events="all"/><g fill="#000000" font-family="Helvetica" text-anchor="end" font-size="12px"><text x="707.5" y="307.5">edge_out</text></g><rect x="210" y="493" width="240" height="150" rx="9" ry="9" fill="#dae8fc" stroke="#6c8ebf" pointer-events="all"/><g fill="#000000" font-family="Helvetica" text-anchor="middle" font-size="12px"><text x="329.5" y="572.5">Line buffer</text></g><rect x="520" y="493" width="190" height="150" rx="9" ry="9" fill="#dae8fc" stroke="#6c8ebf" pointer-events="all"/><g fill="#000000" font-family="Helvetica" text-anchor="middle" font-size="12px"><text x="614.5" y="572.5">Edge detector</text></g><rect x="210" y="513" width="80" height="20" fill="none" stroke="none" pointer-events="all"/><g fill="#000000" font-family="Helvetica" font-size="12px"><text x="211.5" y="527.5">pixel_in[7:0]</text></g><rect x="210" y="573" width="50" height="20" fill="none" stroke="none" pointer-events="all"/><g fill="#000000" font-family="Helvetica" font-size="12px"><text x="211.5" y="587.5">hsync</text></g><rect x="210" y="593" width="50" height="20" fill="none" stroke="none" pointer-events="all"/><g fill="#000000" font-family="Helvetica" font-size="12px"><text x="211.5" y="607.5">vsync</text></g><rect x="210" y="613" width="50" height="20" fill="none" stroke="none" pointer-events="all"/><g fill="#000000" font-family="Helvetica" font-size="12px"><text x="211.5" y="627.5">de</text></g><path d="M 450 523 L 520 523" fill="none" stroke="#000000" stroke-width="2" stroke-miterlimit="10" pointer-events="stroke"/><path d="M 515.5 527.5 L 506.5 518.5" fill="none" stroke="#000000" stroke-width="2" stroke-miterlimit="10" pointer-events="all"/><rect x="340" y="508" width="110" height="30" fill="none" stroke="none" pointer-events="all"/><g fill="#000000" font-family="Helvetica" text-anchor="end" font-size="12px"><text x="447.5" y="527.5">pixel_out [7:0] [9:1] </text></g><rect x="520" y="513" width="100" height="20" fill="none" stroke="none" pointer-events="all"/><g fill="#000000" font-family="Helvetica" text-anchor="middle" font-size="12px"><text x="569.5" y="527.5">pixel_in [7:0] [9:1]</text></g><path d="M 450 583 L 513.63 583" fill="none" stroke="#000000" stroke-miterlimit="10" pointer-events="stroke"/><path d="M 518.88 583 L 511.88 586.5 L 513.63 583 L 511.88 579.5 Z" fill="#000000" stroke="#000000" stroke-miterlimit="10" pointer-events="all"/><rect x="400" y="573" width="50" height="20" fill="none" stroke="none" pointer-events="all"/><g fill="#000000" font-family="Helvetica" text-anchor="end" font-size="12px"><text x="447.5" y="587.5">hsync_dl</text></g><path d="M 450 603 L 513.63 603" fill="none" stroke="#000000" stroke-miterlimit="10" pointer-events="stroke"/><path d="M 518.88 603 L 511.88 606.5 L 513.63 603 L 511.88 599.5 Z" fill="#000000" stroke="#000000" stroke-miterlimit="10" pointer-events="all"/><rect x="400" y="593" width="50" height="20" fill="none" stroke="none" pointer-events="all"/><g fill="#000000" font-family="Helvetica" text-anchor="end" font-size="12px"><text x="447.5" y="607.5">vsync_dl</text></g><path d="M 450 623 L 513.63 623" fill="none" stroke="#000000" stroke-miterlimit="10" pointer-events="stroke"/><path d="M 518.88 623 L 511.88 626.5 L 513.63 623 L 511.88 619.5 Z" fill="#000000" stroke="#000000" stroke-miterlimit="10" pointer-events="all"/><rect x="400" y="613" width="50" height="20" fill="none" stroke="none" pointer-events="all"/><g fill="#000000" font-family="Helvetica" text-anchor="end" font-size="12px"><text x="447.5" y="627.5">de_dl</text></g><rect x="520" y="573" width="50" height="20" fill="none" stroke="none" pointer-events="all"/><g fill="#000000" font-family="Helvetica" font-size="12px"><text x="521.5" y="587.5">hsync</text></g><rect x="520" y="593" width="50" height="20" fill="none" stroke="none" pointer-events="all"/><g fill="#000000" font-family="Helvetica" font-size="12px"><text x="521.5" y="607.5">vsync</text></g><rect x="520" y="613" width="50" height="20" fill="none" stroke="none" pointer-events="all"/><g fill="#000000" font-family="Helvetica" font-size="12px"><text x="521.5" y="627.5">de</text></g><rect x="650" y="573" width="60" height="20" fill="none" stroke="none" pointer-events="all"/><g fill="#000000" font-family="Helvetica" text-anchor="end" font-size="12px"><text x="707.5" y="587.5">hsync_out</text></g><rect x="650" y="593" width="60" height="20" fill="none" stroke="none" pointer-events="all"/><g fill="#000000" font-family="Helvetica" text-anchor="end" font-size="12px"><text x="707.5" y="607.5">vsync_out</text></g><rect x="650" y="613" width="60" height="20" fill="none" stroke="none" pointer-events="all"/><g fill="#000000" font-family="Helvetica" text-anchor="end" font-size="12px"><text x="707.5" y="627.5">de_out</text></g><path d="M 710 523 L 770 523 L 770 371.8 L 824.13 371.76" fill="none" stroke="#000000" stroke-miterlimit="10" pointer-events="stroke"/><path d="M 829.38 371.75 L 822.38 375.26 L 824.13 371.76 L 822.38 368.26 Z" fill="#000000" stroke="#000000" stroke-miterlimit="10" pointer-events="all"/><rect x="650" y="513" width="60" height="20" fill="none" stroke="none" pointer-events="all"/><g fill="#000000" font-family="Helvetica" text-anchor="end" font-size="12px"><text x="707.5" y="527.5">edge_out</text></g><path d="M 80 93 L 210 93" fill="none" stroke="#000000" stroke-width="2" stroke-miterlimit="10" pointer-events="stroke"/><path d="M 205.5 97.5 L 196.5 88.5" fill="none" stroke="#000000" stroke-width="2" stroke-miterlimit="10" pointer-events="all"/><rect x="20" y="83" width="60" height="20" fill="none" stroke="none" pointer-events="all"/><g fill="#000000" font-family="Helvetica" text-anchor="middle" font-size="12px"><text x="49.5" y="97.5">red_i [7:0] </text></g><path d="M 80 303 L 210 303" fill="none" stroke="#000000" stroke-width="2" stroke-miterlimit="10" pointer-events="stroke"/><path d="M 205.5 307.5 L 196.5 298.5" fill="none" stroke="#000000" stroke-width="2" stroke-miterlimit="10" pointer-events="all"/><rect x="0" y="293" width="80" height="20" fill="none" stroke="none" pointer-events="all"/><g fill="#000000" font-family="Helvetica" text-anchor="middle" font-size="12px"><text x="39.5" y="307.5">green_i [7:0] </text></g><path d="M 80 523 L 210 523" fill="none" stroke="#000000" stroke-width="2" stroke-miterlimit="10" pointer-events="stroke"/><path d="M 205.5 527.5 L 196.5 518.5" fill="none" stroke="#000000" stroke-width="2" stroke-miterlimit="10" pointer-events="all"/><rect x="10" y="513" width="70" height="20" fill="none" stroke="none" pointer-events="all"/><g fill="#000000" font-family="Helvetica" text-anchor="middle" font-size="12px"><text x="44.5" y="527.5">blue_i [7:0] </text></g><path d="M 80 118 L 190 118 L 190 153 L 205.13 153" fill="none" stroke="#000000" stroke-miterlimit="10" pointer-events="stroke"/><path d="M 208.88 153 L 203.88 155.5 L 205.13 153 L 203.88 150.5 Z" fill="#000000" stroke="#000000" stroke-miterlimit="10" pointer-events="all"/><path d="M 80 118 L 190 118 L 190 300 C 193.9 300 193.9 306 190 306 L 190 306 L 190 363 L 205.13 363" fill="none" stroke="#000000" stroke-miterlimit="10" pointer-events="stroke"/><path d="M 208.88 363 L 203.88 365.5 L 205.13 363 L 203.88 360.5 Z" fill="#000000" stroke="#000000" stroke-miterlimit="10" pointer-events="all"/><path d="M 80 118 L 190 118 L 190 300 C 193.9 300 193.9 306 190 306 L 190 306 L 190 520 C 193.9 520 193.9 526 190 526 L 190 526 L 190 583 L 205.13 583" fill="none" stroke="#000000" stroke-miterlimit="10" pointer-events="stroke"/><path d="M 208.88 583 L 203.88 585.5 L 205.13 583 L 203.88 580.5 Z" fill="#000000" stroke="#000000" stroke-miterlimit="10" pointer-events="all"/><rect x="30" y="108" width="50" height="20" fill="none" stroke="none" pointer-events="all"/><g fill="#000000" font-family="Helvetica" text-anchor="middle" font-size="12px"><text x="54.5" y="122.5">hsync</text></g><path d="M 80 138 L 170 138 L 170 173 L 187 173 C 187 169.1 193 169.1 193 173 L 193 173 L 205.13 173" fill="none" stroke="#000000" stroke-miterlimit="10" pointer-events="stroke"/><path d="M 208.88 173 L 203.88 175.5 L 205.13 173 L 203.88 170.5 Z" fill="#000000" stroke="#000000" stroke-miterlimit="10" pointer-events="all"/><path d="M 80 138 L 170 138 L 170 300 C 173.9 300 173.9 306 170 306 L 170 306 L 170 383 L 187 383 C 187 379.1 193 379.1 193 383 L 193 383 L 205.13 383" fill="none" stroke="#000000" stroke-miterlimit="10" pointer-events="stroke"/><path d="M 208.88 383 L 203.88 385.5 L 205.13 383 L 203.88 380.5 Z" fill="#000000" stroke="#000000" stroke-miterlimit="10" pointer-events="all"/><rect x="30" y="128" width="50" height="20" fill="none" stroke="none" pointer-events="all"/><g fill="#000000" font-family="Helvetica" text-anchor="middle" font-size="12px"><text x="54.5" y="142.5">vsync</text></g><path d="M 80 158 L 145 158 L 145 300 C 148.9 300 148.9 306 145 306 L 145 306 L 145 403 L 187 403 C 187 399.1 193 399.1 193 403 L 193 403 L 205.13 403" fill="none" stroke="#000000" stroke-miterlimit="10" pointer-events="stroke"/><path d="M 208.88 403 L 203.88 405.5 L 205.13 403 L 203.88 400.5 Z" fill="#000000" stroke="#000000" stroke-miterlimit="10" pointer-events="all"/><path d="M 80 158 L 145 158 L 145 300 C 148.9 300 148.9 306 145 306 L 145 306 L 145 520 C 148.9 520 148.9 526 145 526 L 145 526 L 145 623 L 205.13 623" fill="none" stroke="#000000" stroke-miterlimit="10" pointer-events="stroke"/><path d="M 208.88 623 L 203.88 625.5 L 205.13 623 L 203.88 620.5 Z" fill="#000000" stroke="#000000" stroke-miterlimit="10" pointer-events="all"/><rect x="30" y="148" width="50" height="20" fill="none" stroke="none" pointer-events="all"/><g fill="#000000" font-family="Helvetica" text-anchor="middle" font-size="12px"><text x="54.5" y="162.5">de</text></g><path d="M 80 158 L 145 158 L 145 193 L 167 193 C 167 189.1 173 189.1 173 193 L 173 193 L 187 193 C 187 189.1 193 189.1 193 193 L 193 193 L 205.13 193" fill="none" stroke="#000000" stroke-miterlimit="10" pointer-events="stroke"/><path d="M 208.88 193 L 203.88 195.5 L 205.13 193 L 203.88 190.5 Z" fill="#000000" stroke="#000000" stroke-miterlimit="10" pointer-events="all"/><path d="M 880 348 L 965 348 L 965 197 C 970.2 197 970.2 189 965 189 L 965 189 L 965 177 C 970.2 177 970.2 169 965 169 L 965 169 L 965 157 C 970.2 157 970.2 149 965 149 L 965 149 L 965 93 L 1050 93" fill="none" stroke="#000000" stroke-width="2" stroke-miterlimit="10" pointer-events="stroke"/><path d="M 1045.5 97.5 L 1036.5 88.5" fill="none" stroke="#000000" stroke-width="2" stroke-miterlimit="10" pointer-events="all"/><path d="M 880 348 L 965 348 L 965 303 L 1050 303" fill="none" stroke="#000000" stroke-width="2" stroke-miterlimit="10" pointer-events="stroke"/><path d="M 1045.5 307.5 L 1036.5 298.5" fill="none" stroke="#000000" stroke-width="2" stroke-miterlimit="10" pointer-events="all"/><path d="M 880 348 L 965 348 L 965 523 L 1050 523" fill="none" stroke="#000000" stroke-width="2" stroke-miterlimit="10" pointer-events="stroke"/><path d="M 1045.5 527.5 L 1036.5 518.5" fill="none" stroke="#000000" stroke-width="2" stroke-miterlimit="10" pointer-events="all"/><path d="M 820 300.5 Q 880 300.5 880 348 Q 880 395.5 820 395.5 Q 850 348 820 300.5 Z" fill="#ffffff" stroke="#000000" stroke-miterlimit="10" pointer-events="all"/><rect x="497.5" y="13" width="115" height="20" fill="none" stroke="none" pointer-events="all"/><g fill="#000000" font-family="Helvetica" font-weight="bold" text-anchor="middle" font-size="14px"><text x="554.5" y="28.5">Sobel wrapper</text></g><rect x="1050" y="83" width="70" height="20" fill="none" stroke="none" pointer-events="all"/><g fill="#000000" font-family="Helvetica" text-anchor="middle" font-size="14px"><text x="1084.5" y="98.5">red_o [7:0]</text></g><rect x="1050" y="293" width="90" height="20" fill="none" stroke="none" pointer-events="all"/><g fill="#000000" font-family="Helvetica" text-anchor="middle" font-size="14px"><text x="1094.5" y="308.5">green_o [7:0]</text></g><rect x="1050" y="513" width="90" height="20" fill="none" stroke="none" pointer-events="all"/><g fill="#000000" font-family="Helvetica" text-anchor="middle" font-size="14px"><text x="1094.5" y="528.5">blue_o [7:0]</text></g><rect x="1050" y="143" width="70" height="20" fill="none" stroke="none" pointer-events="all"/><g fill="#000000" font-family="Helvetica" text-anchor="middle" font-size="12px"><text x="1084.5" y="157.5">hsync_out</text></g><rect x="1050" y="163" width="70" height="20" fill="none" stroke="none" pointer-events="all"/><g fill="#000000" font-family="Helvetica" text-anchor="middle" font-size="12px"><text x="1084.5" y="177.5">vsync_out</text></g><rect x="1050" y="183" width="70" height="20" fill="none" stroke="none" pointer-events="all"/><g fill="#000000" font-family="Helvetica" text-anchor="middle" font-size="12px"><text x="1084.5" y="197.5">de_out</text></g><path d="M 80 138 L 170 138 L 170 190 C 173.9 190 173.9 196 170 196 L 170 196 L 170 300 C 173.9 300 173.9 306 170 306 L 170 306 L 170 400 C 173.9 400 173.9 406 170 406 L 170 406 L 170 520 C 173.9 520 173.9 526 170 526 L 170 526 L 170 603 L 205.13 603" fill="none" stroke="#000000" stroke-miterlimit="10" pointer-events="stroke"/><path d="M 208.88 603 L 203.88 605.5 L 205.13 603 L 203.88 600.5 Z" fill="#000000" stroke="#000000" stroke-miterlimit="10" pointer-events="all"/></g></svg>